<svg width="34" height="34" viewBox="0 0 34 34" fill="none" xmlns="http://www.w3.org/2000/svg">
<path d="M8.5 2.83331L4.25 8.49998V28.3333C4.25 29.0848 4.54851 29.8054 5.07986 30.3368C5.61122 30.8681 6.33189 31.1666 7.08333 31.1666H26.9167C27.6681 31.1666 28.3888 30.8681 28.9201 30.3368C29.4515 29.8054 29.75 29.0848 29.75 28.3333V8.49998L25.5 2.83331H8.5Z" stroke="#21272A" stroke-width="2" stroke-linecap="round" stroke-linejoin="round"/>
<path d="M4.25 8.5H29.75" stroke="#21272A" stroke-width="2" stroke-linecap="round" stroke-linejoin="round"/>
<path d="M22.6673 14.1667C22.6673 15.6696 22.0703 17.1109 21.0076 18.1736C19.9449 19.2363 18.5035 19.8334 17.0007 19.8334C15.4978 19.8334 14.0564 19.2363 12.9937 18.1736C11.931 17.1109 11.334 15.6696 11.334 14.1667" stroke="#21272A" stroke-width="2" stroke-linecap="round" stroke-linejoin="round"/>
</svg>
